<?xml version="1.0" encoding="UTF-8"?>
<svg id="Layer_2" data-name="Layer 2" xmlns="http://www.w3.org/2000/svg" viewBox="0 0 395.91 170.24">
  <defs>
    <style>
      .cls-1 {
        fill: #00a74f;
      }

      .cls-2 {
        fill: #00aee8;
      }

      .cls-3 {
        fill: #ec008c;
      }

      .cls-4 {
        fill: #ed1c24;
      }

      .cls-5 {
        fill: #f0d413;
      }
    </style>
  </defs>
  <g id="Layer_1-2" data-name="Layer 1">
    <g>
      <path class="cls-3" d="m176.36,165.28l-16.13-102.64V4.96c0-3.41,1.55-4.96,4.96-4.96H4.96C1.55,0,0,1.55,0,4.96v160.32c0,3.41,1.55,4.96,4.96,4.96h46.2c3.41,0,4.96-1.55,4.96-4.96V29.46c0-1.24.62-1.86,1.86-1.86h11.78c1.24,0,1.86.62,1.86,1.86v135.82c0,3.41,1.55,4.96,4.96,4.96h46.21c3.41,0,4.96-1.55,4.96-4.96V29.46c0-1.24.62-1.86,1.86-1.86h11.16c1.55,0,2.48.93,2.48,2.48v135.2c0,3.41,1.55,4.96,4.96,4.96h34.02c-3.41,0-5.58-1.55-5.89-4.96Z"/>
      <path class="cls-5" d="m395.91,4.96c0-3.41-1.55-4.96-4.96-4.96h-46.2c-3.41,0-4.96,1.55-4.96,4.96l-4.34,129.93c0,1.55-.93,2.17-3.1,2.17h-1.86c-2.17,0-3.1-.62-3.1-2.17l-3.72-129.93c0-3.41-1.55-4.96-4.96-4.96h-80.01c-3.41,0-4.96,1.55-4.96,4.96l-3.72,129.93c0,1.55-.93,2.17-3.1,2.17h-1.86c-2.17,0-3.1-.62-3.1-2.17l-4.34-129.93c0-3.41-1.55-4.96-4.96-4.96h-34.02c15.2,0,22.64,8.68,22.64,25.74v139.55c0,3.41-1.55,4.96-4.96,4.96h69.99c3.41,0,4.96-1.55,5.27-4.96l3.72-129.93c0-1.55.93-2.17,3.1-2.17h1.86c2.17,0,3.1.62,3.1,2.17l3.72,129.93c.31,3.41,1.86,4.96,4.96,4.96h62.95c-2.79,0-4.65-1.55-4.65-4.96v-34.11c0-3.1,1.86-4.96,4.65-4.96h30.95l9.99-63.57V4.96Z"/>
      <path class="cls-4" d="m201.26,165.28V25.74c0-17.06-7.44-25.74-22.64-25.74h-13.42c-3.41,0-4.96,1.55-4.96,4.96v57.68l16.13,102.64c.31,3.41,2.48,4.96,5.89,4.96h14.04c3.41,0,4.96-1.55,4.96-4.96Z"/>
      <path class="cls-2" d="m373.58,170.24h17.37c3.1,0,4.96-1.55,4.96-4.96v-34.11c0-3.1-1.86-4.96-4.96-4.96h-5.02l-6.14,39.07c-.62,3.41-2.79,4.96-6.2,4.96Z"/>
      <path class="cls-1" d="m350.32,131.17v34.11c0,3.41,1.86,4.96,4.65,4.96h18.61c3.41,0,5.58-1.55,6.2-4.96l6.14-39.07h-30.95c-2.79,0-4.65,1.86-4.65,4.96Z"/>
    </g>
  </g>
</svg>