<svg height="1365.333" viewBox="0 0 1024 1024" width="1365.333" xmlns="http://www.w3.org/2000/svg"><path d="m404 289.1v88.1l-8.2-7.7c-21.1-19.9-42.2-28.4-71.8-29-17.7-.3-26.8.8-41.8 5.1-31.7 9.2-59.8 34.7-75.7 68.7-4.7 10.2-10.7 27.3-13.2 37.6-1.8 8-1.8 7.8-3.3 17.1-.6 4.1-1.3 8.6-1.6 10-1.9 11.1-2.5 52.2-1.1 70 2.7 35 13.1 68.5 28.6 92.5 6.2 9.6 9.4 13.6 17.8 22.1 19.4 19.8 41.9 30.9 70.8 35 4.7.6 26.9.7 30.1 0 1.6-.3 4.9-.8 7.4-1.1 5.4-.7 18-4.6 25.5-8 11.7-5.1 27.4-17.2 36.6-28.2 2.4-2.8 4.5-5.1 4.6-4.9.1.1 1.1 7.6 2.3 16.6 1.1 9.1 2.3 17.3 2.6 18.3.5 1.6 3.2 1.7 43.7 1.5l43.2-.3v-35.8c0-19.6.2-35.7.5-35.7s2.2 3.3 4.3 7.4c12.4 24.2 33.4 45.2 57.3 57.4 11.4 5.9 18.1 8.1 30.9 10.7 13.9 2.7 31.9 3.5 42.9 2 25-3.4 43.6-12.1 60.3-28 3.7-3.6 6.9-6.5 7.1-6.5.6 0-.1 25.7-.8 30.5-1.5 9.3-2 11.5-3.6 16.3-7 20.5-25 36.1-47.7 41.1-18.8 4.3-45.8 2.5-61.2-3.9-17.3-7.1-28.3-14.2-40.8-26.3l-5-4.7-1.5 2.2c-3.8 5.7-30.7 43.7-33.1 46.8-1.5 1.9-3.7 5.2-4.9 7.2l-2.3 3.6 8.1 8.1c14.1 14.1 34.5 26 57.6 33.6 10.8 3.6 24.1 7 30.9 8 2.2.3 5.1.8 6.5 1 10.3 1.8 35.5 2.4 47.5 1.1 2.8-.3 7.5-.8 10.5-1.2 3-.3 10.7-1.6 17-2.9 32.1-6.5 59.6-20.2 79.1-39.5 17.9-17.6 28.9-36.3 35.3-60.5 4.3-16 5.4-24.9 5.6-46.5l.1-15.5 3.2 6.3c9.2 18 28.5 28.4 51.2 27.5 17.5-.7 33-8.2 41.6-20 7.2-10.1 9.9-18.2 9.9-30.8.1-11.5-2.1-19.2-7.9-28.2-10-15.6-27.2-23.6-48.9-22.8-21.3.7-37.5 10.5-46.2 27.8l-3 6v-281.9l-43.4.1c-23.9 0-43.7.2-44 .5-.2.3-.7 3.2-1 6.5s-.9 8.2-1.2 11c-.4 2.7-.8 5.9-.9 7s-.3 3.1-.4 4.5c-.1 2.2-.8 1.7-7.2-4.8-12.5-12.8-28.2-21.9-46-26.7-11.6-3.1-20-4-36.4-4-11.8.1-15.2.3-26.5 2.1-5.7.8-24.7 7.2-30.9 10.3-23.8 12.1-45.9 34.3-59 59.6-1.7 3.3-3.1 5.5-3.2 5 0-.6 0-49.5-.1-108.8l-.1-107.7h-96.7zm-39 131.3c15.2 4 28.7 14.1 35.8 26.7l3.2 5.6v134.5l-4.6 6.9c-11.7 17.7-30 26.9-53.3 26.9-27.2-.1-44.6-12.8-54.4-40-1.5-4.1-2.9-8.4-3.2-9.5-.2-1.1-1.1-5.3-1.9-9.4-2.7-12.2-3.1-18.5-3-44.1 0-26.4 1.1-35.5 6-52 7.9-26.7 23.8-43.5 43.9-46.6 2.2-.3 4.1-.7 4.3-.9 1-.9 21.8.5 27.2 1.9zm301.8.2c14.5 3.6 27.3 12.2 34.9 23.5l2.4 3.6v143.5l-2.5 3.8c-6.9 10.4-18.9 19-32.6 23.1-9.9 3-30.5 3.7-39.4 1.3-15.4-4-29-14.6-36.5-28.4-11.4-21-15.5-40-15.4-72 0-10.7.9-24.2 1.9-29.3.2-1.2.7-3.8 1-5.7 3-17.6 12.9-38.3 23.3-48.8 8.3-8.3 20-14.4 30.4-15.9 2.3-.3 4.4-.7 4.5-.8 1-1 22.2.7 28 2.1z"/></svg>